<?xml version="1.0" encoding="utf-8"?>
<!-- Generator: Adobe Illustrator 23.0.1, SVG Export Plug-In . SVG Version: 6.00 Build 0)  -->
<svg version="1.1" id="Layer_1" xmlns="http://www.w3.org/2000/svg" xmlns:xlink="http://www.w3.org/1999/xlink" x="0px" y="0px"
	 viewBox="0 0 1400 830.38" style="enable-background:new 0 0 1400 830.38;" xml:space="preserve">
<style type="text/css">
	.st0{display:none;fill:url(#SVGID_1_);}
	.st1{fill:#157E80;}
	.st2{display:none;fill:#24A3A3;}
	.st3{display:none;fill:url(#SVGID_2_);}
	.st4{display:none;fill:#0E262D;}
	.st5{display:none;fill:#071E1A;}
	.st6{fill:#3B5453;}
	.st7{fill:#4B6361;}
	.st8{opacity:0.2;fill:#FFD239;enable-background:new    ;}
	.st9{fill:#FF8A50;}
	.st10{fill:#F3701E;}
	.st11{fill:#CE5917;}
	.st12{fill:#202214;}
	.st13{fill:#FCAA86;}
	.st14{fill:#69462F;}
	.st15{fill:#7C543E;}
	.st16{fill:#9B722F;}
	.st17{fill:#FFD239;}
	.st18{fill:#F88414;}
</style>
<linearGradient id="SVGID_1_" gradientUnits="userSpaceOnUse" x1="705.4808" y1="853.4164" x2="699.482" y2="379.5112" gradientTransform="matrix(1 0 0 -1 0 260.7692)">
	<stop  offset="0" style="stop-color:#193C44"/>
	<stop  offset="1" style="stop-color:#12635E"/>
</linearGradient>
<rect y="-569.62" class="st0" width="1400" height="819.9"/>
<path class="st1" d="M0-362.72l451.5,258c0,0,309-107,318-111.1c9-4,374.1,116.3,374.1,116.3L1400-8.62v524H0V-362.72z"/>
<path class="st2" d="M554.4-1.22l-200-112.3l-166-83.2l116.4,115.1l-198.4-142.6l-82-53.3l88,188.7L0-241.52v-121.2l451.5,258
	l318-111.1l374.1,116.3L1400-8.62v45.1l-245.6-96l139.7,181l-249.7-210.3l-97-31.8l149,112l-244-128.9l-86-48l102,96.7
	c0,0-126-80.7-132-80.7s-252,80.7-252,80.7l322,181.3L554.4-1.22z"/>
<linearGradient id="SVGID_2_" gradientUnits="userSpaceOnUse" x1="701.45" y1="-57.9321" x2="701.45" y2="365.1103" gradientTransform="matrix(1 0 0 -1 0 260.7692)">
	<stop  offset="0" style="stop-color:#203736"/>
	<stop  offset="1" style="stop-color:#193C44"/>
</linearGradient>
<path class="st3" d="M1402.9,681.98v-444.7v-53.3l-6.6-12.3l6.6,0.8v-45l-10.5-21.1l10.5,0.9v-20.9l-27-44.9l21.4,2.3l-23-46.1
	l13.2-1.6l-34.4-83.4l-34.4,83.4l13.2,1.6l-23,46.1l21.4-2.3l-21.4,35.7l-31.4-52.2l21.4,2.3l-23-46.1l13.2-1.6l-34.4-83.4
	l-31.9,77.4l-31.8-77.2l-37,89.8l14.2,1.7l-11.4,22.7l-25-60.7l-34.4,83.4l13.2,1.6l-23,46.1l21.4-2.3l-24.6,40.9l-14.9-29.8
	l23.8,2.1l-40.3-67l21.4,2.3l-23-46.1l13.2-1.6l-34.4-83.4l-34.4,83.4l11.1,1.4l-10.2,24.7l-10.8,21.6l15.9-1.7L985,59.08
	l-30.1-50.7l21.4,2.3l-23-46.1l13.2-1.6l-34.4-83.4l-33,80.1l-26.1-63.5l-34.4,83.4l13.2,1.6l-12.5,25.1l-30-72.8l-8.5,20.7
	l-17-41.4l-34.4,83.4l13.2,1.6l-20.1,40.3l-17.5-35l13-1.7l-34.4-83.4l-34.3,83.4l13.2,1.6l-23,46.1l21.4-2.3l-39.4,65.6l-20.2-33.7
	l21.4,2.3l-23-46.1l13.2-1.6l-34.4-83.4L583-12.32l-11.5-23.1l13.2-1.6l-34.4-83.4L526-61.52l-10.6-25.7l-23.8,57.7l-30.6-74.3
	l-34.4,83.4l13.2,1.6l-23,46.1l21.4-2.3l-40.3,67l23.8-2.1l-18.6,37.2l-25-41.6l21.4,2.3l-23-46.1l13.2-1.6l-34.4-83.4l-34.4,83.4
	l13.2,1.6l-21.8,43.6l-13.9-23.1l21.4,2.3L297,18.38l13.2-1.6l-34.3-83.4l-34.4,83.4l13.2,1.6l-19.6,39.2l-19.6-32.6l21.4,2.3
	l-23-46.1l13.2-1.6l-34.4-83.4l-34.4,83.4l13.2,1.6l-23,46.1l21.4-2.3l-40.3,67l23.8-2.1l-29,58.1H79l-7-14.2l23.8,2.1l-40.3-67
	l21.4,2.3l-23-46.1l13.2-1.6l-34.4-83.4L0,19.58v4.1l11.6,1.4L0,48.18v21.7l10-1.1L0,85.48v398.3v15.1h132.1v183h1270.8V681.98z
	 M1308.5,174.58l-1.4-2.5l2.9-0.4L1308.5,174.58z M1314,106.48l-5.8,11.6l-5.3-10.6L1314,106.48z M1301,90.48l-3.6,6l-3.3-6.6
	L1301,90.48z M1220.8,43.68l-5.2-8.6l9.7,1L1220.8,43.68z M1228.2-13.82l-2.5-6l8,1l-11.6,23.1l-8.2-16.3L1228.2-13.82z
	 M1166.6,35.18l-7.3,12.2l-5.4-10.8L1166.6,35.18z M1086.2,156.68l-3.2,6.4l-3.6-7.3L1086.2,156.68z M987.5,90.18l-4.2,7l-3.2-6.3
	L987.5,90.18z M978.3,73.88l-3.6,6l-3.3-6.6L978.3,73.88z M897.6,28.08l-1.9-3.1l3.5,0.4L897.6,28.08z M908.5,9.88l-0.7-1.3l1.6-0.2
	L908.5,9.88z M911-35.42l-5.4,10.8l-5-12L911-35.42z M903.3-19.92l-4.8,9.7l-4.3-8.6L903.3-19.92z M850.2,24.98l-9,15l-6.7-13.3
	L850.2,24.98z M833.4,17.98l-1.6,3.1l-1.4-2.8L833.4,17.98z M747.9,49.08l-2.9-5.9l16-1.7l-18.8,31.3l-15.7-26.1L747.9,49.08z
	 M657.4,182.88l-2.6-5.2l5.8-0.7L657.4,182.88z M664.5,111.68l-10.6,21.2l-11.6-19.3L664.5,111.68z M648.1,144.58l-4.9,9.9
	l-5.4-10.8L648.1,144.58z M574.4,8.48l-0.5,1.3l-0.8-1.4L574.4,8.48z M494.2-2.22l-1.9,3.8l-2.1-4.3L494.2-2.22z M487.5-19.52
	l-2.6,6.2l-2.8-5.5L487.5-19.52z M417.9,155.18l-10.8,20.1l-8.8-17.7L417.9,155.18z M332.7,85.48l-10,16.7l-8.8-14.7L332.7,85.48z
	 M253.1,62.18l-7.6,12.7l-6.7-11.2L253.1,62.18z M236.2,90.28l-2.2,3.7l-2-4.1L236.2,90.28z"/>
<path class="st4" d="M1335.3,297.78l-18.6-36.4l28.2,2.4l-47.8-77.5l25.4,2.6l-27.3-53.3l15.6-1.9l-40.7-96.5l-40.7,96.5l15.6,1.9
	l-27.3,53.3l25.4-2.6l-47.8,77.5l28.2-2.4l-18.6,36.4h-67l-6.4-11.7l36.3,4.4l-40.9-79.9l28.2,2.4l-47.8-77.5l25.4,2.6l-27.3-53.3
	l15.6-1.9l-40.7-96.5l-40.7,96.5l15.6,1.9l-27.3,53.3l25.4-2.6l-23.3,37.7l-23.2-45.4l15.6-1.9l-40.7-96.5l-40.7,96.5l15.6,1.9
	l-27.3,53.3l25.4-2.6l-47.8,77.5l28.2-2.4l-22.6,44.1h-92.9l-6.4-11.7l36.3,4.4l-40.9-79.9l28.2,2.4l-47.6-77.5l25.4,2.6l-27.3-53.3
	l15.6-1.9l-40.6-96.4l-40.7,96.5l15.6,1.9l-27.3,53.3l25.4-2.6l-20.1,32.6l-31.9-51.8l25.4,2.6l-27.3-53.3l15.6-1.9l-40.7-96.5
	l-40.7,96.5l15.6,1.9l-27.3,53.3l25.4-2.6l-47.8,77.5l28.2-2.4l-40.9,79.9l36.3-4.4l-17,30.8h-35.5l-31.7-61.9l28.2,2.4l-47.8-77.5
	l25.4,2.6l-27.3-53.3l15.6-1.9l-40.7-96.5l-40.7,96.5l15.6,1.9l-27.2,53.3l25.4-2.6l-41.1,66.7l-30.2-49l25.4,2.6l-27.3-53.3
	l15.6-1.9l-40.7-96.5l-40.7,96.5l15.6,1.9l-27.3,53.3l25.4-2.6l-42.9,70l-29.2-57l28.2,2.4l-47.8-77.5l25.4,2.6l-27.3-53.3l15.6-1.9
	l-40.7-96.5l-40.7,96.5l15.6,1.9l-27.3,53.3l25.4-2.6l-37.2,60.5l-25.4-41.4l25.4,2.6l-27.3-53.3l15.6-1.9l-40.7-96.4l-40.7,96.5
	l15.6,1.9l-27.3,53.3l25.4-2.6L12,212.98l28.2-2.4l-40.9,79.9l36.3-4.4L0,350.68v313.3h1402.9v-366.2H1335.3z M139.8,289.48
	l-1.9-3.4l3.5,0.4L139.8,289.48z M140.2,223.98l-6.9-13.4l13.2,1.1L140.2,223.98z M153,199.08l-4.3-7l8.2-0.7L153,199.08z
	 M280.1,297.78h-8.5l-17-30.8l36.3,4.4l-8.2-16l20-1.7L280.1,297.78z M407.3,276.18l-11.6-22.6l22.1,1.9L407.3,276.18z
	 M420.5,250.38l-8.1-13.2l15.6-1.3L420.5,250.38z M714.2,213.58l-1.4-2.7l2.9-0.2L714.2,213.58z M1017.9,193.18l-9-14.7l17,1.8
	L1017.9,193.18z M1031.5,215.28l-2.6-4.3l5.1-0.4L1031.5,215.28z"/>
<polygon class="st5" points="203.3,415.58 254.4,421.28 196.7,316.88 236.5,319.98 169.2,218.68 205,222.08 166.5,152.48 
	188.6,149.98 131.1,23.98 73.7,149.98 95.7,152.48 57.3,222.08 93.1,218.68 25.8,319.98 65.6,316.88 7.9,421.28 59,415.58 0,514.68 
	131.1,514.68 262.3,514.68 "/>
<polygon class="st5" points="538.5,352.08 589.6,357.78 531.9,253.38 571.7,256.48 504.4,155.18 540.2,158.68 501.8,88.98 
	523.8,86.58 466.4,-39.52 408.9,86.58 430.9,88.98 392.5,158.68 428.3,155.18 361,256.48 400.8,253.38 343.1,357.78 394.2,352.08 
	335.2,451.18 466.4,451.18 597.5,451.18 "/>
<polygon class="st5" points="867.7,376.88 918.9,382.58 861.2,278.18 900.9,281.28 833.6,179.98 869.5,183.38 831,113.78 
	853,111.38 795.6,-14.72 738.1,111.38 760.2,113.78 721.7,183.38 757.6,179.98 690.2,281.28 730,278.18 672.3,382.58 723.5,376.88 
	664.4,475.98 795.6,475.98 926.7,475.98 "/>
<polygon class="st5" points="1215.8,415.58 1267,421.28 1209.3,316.88 1249,319.98 1181.7,218.68 1217.6,222.08 1179.1,152.48 
	1201.1,149.98 1143.7,23.98 1086.2,149.98 1108.3,152.48 1069.8,222.08 1105.7,218.68 1038.3,319.98 1078.1,316.88 1020.4,421.28 
	1071.6,415.58 1012.5,514.68 1143.7,514.68 1274.8,514.68 "/>
<polygon class="st5" points="1402.9,49.68 1388.5,17.98 1331,143.98 1353.1,146.48 1314.6,216.08 1350.5,212.68 1283.1,313.98 
	1322.9,310.88 1265.2,415.28 1316.4,409.58 1257.3,508.68 1388.5,508.68 1402.9,508.68 "/>
<path class="st6" d="M0,436.58c0,0,623.3-105.3,1400-29.9v423.7H0V436.58z"/>
<path class="st7" d="M835.6,633.68l360.7-97.7l203.7,25.4v-154.7C623.3,331.28,0,436.58,0,436.58v293.9c15.2,1,310.9,20.6,380.9,7.5
	c19.8-3.7,47.2-10.6,78.5-18.8c13.7,2.5,26.7,7,37,14.9c44,33.4,240,71.4,274,65.4s164-24.4,216-21.2
	c52,3.2,469.45,52.1,469.45,52.1l-21.54-38.08c0,0-351.91-27.62-441.91-30.22s-218,20.7-246-28c-16.7-28.9-29.9-52.8-37.9-67.3
	c4.9-0.4,9.7-0.6,14.3-0.8C821.8,662.98,835.6,633.68,835.6,633.68z"/>
<path class="st8" d="M525.9,470.48c-34.9-6.5-44.6-43-239.2-21.7c-136.5,14.9-238.2,39.1-286.7,52.2v196.6
	c59.5,20.3,154.7,30.9,239.8,7.3c117.2-32.5,82.5-37.5,283.5-53.8s201-100.7,196.5-115.2C715.3,521.48,560.8,476.98,525.9,470.48z"
	/>
<g>
	<polygon class="st9" points="466.4,581.28 664.4,212.68 835.6,633.68 	"/>
	<polygon class="st10" points="676.8,583.98 676.8,593.58 641.7,606.18 663.3,460.88 	"/>
	<path class="st10" d="M1035.9,253.48c0,0-211.2,0-371.4-40.8l171.1,421l394.7-37.9L1035.9,253.48z"/>
	<path class="st11" d="M1035.9,253.48c0,0-211.2,0-371.4-40.8l171.1,421l375.2-36c-271.5-4-372.3-130.8-372.3-130.8
		c93.2,68.5,206.8,92.5,206.1,90.3s-36.4-8.7-134.7-83c-98.3-74.3-206.9-237.4-206.9-237.4s30.6,11.6,124.6,22.6
		S1035.9,253.48,1035.9,253.48z"/>
	<polygon class="st12" points="664.4,212.68 618.9,602.88 641.7,606.18 	"/>
	<path class="st13" d="M641.7,606.18c0,0,11.5-20.2,43.2-23.4l-20.4-370L641.7,606.18z"/>
</g>
<g>
	<g>
		<path class="st14" d="M57.7,552.18l134.6-32.1l-7.6-22.6l-133.4,18C51.3,515.38,19.5,540.58,57.7,552.18z"/>
		<path class="st15" d="M184.7,497.38l-133.4,18c0,0-9.2,7.3-11.8,15.9c3.2,0.3,41.2-5.2,53.2-8.2c12-3.1,23.7,0.5,23.7,0.5
			l71.7-15.5L184.7,497.38z"/>
		<path class="st16" d="M67.7,525.58c-1.6-6.3-16.3-10.2-16.3-10.2s-31.9,25.2,6.4,36.8C75.3,538.38,67.7,525.58,67.7,525.58z"/>
	</g>
	<g>
		<path class="st14" d="M279,551.88l-136.9-20l5.6-23.2l134.5,6C282.1,514.68,316.1,536.98,279,551.88z"/>
		<path class="st15" d="M147.6,508.68l134.5,6c0,0,9.8,6.5,13.2,14.8c-3.1,0.6-41.5-1.5-53.7-3.5s-23.6,2.6-23.6,2.6l-72.9-9.1
			L147.6,508.68z"/>
		<path class="st16" d="M266.8,526.28c1.1-6.5,15.3-11.6,15.3-11.6s34,22.3-3.1,37.2C260.3,539.68,266.8,526.28,266.8,526.28z"/>
	</g>
	<g>
		<path class="st14" d="M70,599.28l121.3-66.6l-13.3-19.8l-123.9,52.6C54.1,565.48,30.1,598.18,70,599.28z"/>
		<path class="st15" d="M178,512.88l-123.9,52.6c0,0-7,9.5-7.2,18.4c3.1-0.6,38.4-15.9,49.2-22s23-5.8,23-5.8l65.1-33.9L178,512.88z
			"/>
		<path class="st16" d="M72.6,570.98c-3.2-5.7-18.4-5.5-18.4-5.5s-24.1,32.8,15.9,33.8C83.3,581.28,72.6,570.98,72.6,570.98z"/>
	</g>
	<g>
		<path class="st14" d="M130.6,626.68l75.7-115.9l-21.1-11.2l-84.5,104.8C100.7,604.38,94.9,644.58,130.6,626.68z"/>
		<path class="st15" d="M185.3,499.58l-84.6,104.8c0,0-1.7,11.7,2.4,19.6c2.5-2,26.4-32.1,33-42.6s17.6-16,17.6-16l41.4-60.6
			L185.3,499.58z"/>
		<path class="st16" d="M119.6,600.58c-5.5-3.5-18.9,3.8-18.9,3.8s-5.8,40.2,29.9,22.3C133.9,604.58,119.6,600.58,119.6,600.58z"/>
	</g>
	<g>
		<path class="st14" d="M246.8,610.28l-88.9-106.1l19.6-13.6l96.4,94C273.9,584.58,284.4,623.78,246.8,610.28z"/>
		<path class="st15" d="M177.5,490.58l96.4,94c0,0,3,11.4,0,19.8c-2.7-1.7-30-28.7-37.8-38.3c-7.8-9.6-19.4-13.8-19.4-13.8
			l-48.3-55.3L177.5,490.58z"/>
		<path class="st16" d="M254.7,582.98c5.1-4.1,19.2,1.6,19.2,1.6s10.5,39.3-27.1,25.7C240.9,588.78,254.7,582.98,254.7,582.98z"/>
	</g>
	<g>
		<path class="st14" d="M166,615.28l6.8-138.2l23.6,3.3l6.9,134.4C203.4,614.78,184.4,650.78,166,615.28z"/>
		<path class="st15" d="M196.5,480.38l6.9,134.4c0,0-5.5,10.4-13.4,14.5c-0.9-3.1-2.5-41.5-1.7-53.8c0.8-12.4-4.8-23.3-4.8-23.3
			l2.1-73.4L196.5,480.38z"/>
		<path class="st16" d="M190.4,600.58c6.5,0.4,13,14.2,13,14.2s-19,36-37.3,0.5C176.3,595.48,190.4,600.58,190.4,600.58z"/>
	</g>
	<path class="st17" d="M272.7,477.08c0,0,0.5,7-7.1,20.3s-23.1,11.7-12.9,2.2s14.3-43.7,4.1-67.8s-36.6-41.4-36.6-41.4
		s3.4,12.8,6.5,28.7s-20.5,24.6-31.6,20s6-22.5,5.5-49.1s-34.5-44-34.5-44s-4.4,46.6-23.9,80.9c-0.7,1.3-1.5,2.6-2.3,3.8
		c-9,5-18.4,5.4-24.2,4.2c-10.2-2-1.7-44.4-1.7-44.4s-6.5,4.1-21.6,42.3c-15.1,38.2,6.1,66.9,6.1,66.9c4.1,23.3,25.6,36.6,25.6,36.6
		c18.9-14.5,25,8.2,25,8.2s9.7-10.9,14.2-9.5s6.3,9.7,6.3,9.7s10.9-12.5,20.1-11.4c9.2,1.1,10.4,16.4,10.4,16.4s5.1-20.1,11.8-19.4
		c6.7,0.6,16,9.4,16,9.4c36.5-0.2,51.1-28,53.2-35.7S272.7,477.08,272.7,477.08z"/>
	<path class="st18" d="M248.9,519.08c-8,8.2-27.5,4.4-28.8-2.4c-1.2-6.8,21.4-18.8,26.5-33.1c5.1-14.3,0-32.8,0-32.8
		s-5.1,28.7-16.4,37.5c-11.3,8.9-35.5,11.9-35.2-3.1s-25.9-31.7-34.1-42c-8.2-10.2,5.1-33.4,5.1-33.4s-8.1,10.6-15,24.6
		c-6.8,14,3.1,44.4,0,52.9s-24.9,13-25.9,5.8s-9.6-15-13.7-16s-13-18.1-13-18.1s2.4,15.7,6.8,25.3c4.4,9.6,4.4,16.7,4.8,28.7
		c0.1,4.9,3.3,11.6,6.9,18c4,3.6,7,5.4,7,5.4c18.9-14.5,25,8.2,25,8.2s9.7-10.9,14.2-9.5s6.3,9.7,6.3,9.7s10.9-12.5,20.1-11.4
		c9.2,1.1,10.4,16.4,10.4,16.4s5.1-20.1,11.8-19.4c6.7,0.6,16,9.4,16,9.4c1.5,0,2.9-0.1,4.2-0.2
		C241,531.28,248.9,519.08,248.9,519.08z"/>
</g>
</svg>
