<?xml version="1.0" encoding="utf-8"?>
<!-- Generator: Adobe Illustrator 23.0.1, SVG Export Plug-In . SVG Version: 6.00 Build 0)  -->
<svg version="1.1" id="Layer_1" xmlns="http://www.w3.org/2000/svg" xmlns:xlink="http://www.w3.org/1999/xlink" x="0px" y="0px"
	 viewBox="0 0 1177.9 639.31" style="enable-background:new 0 0 1177.9 639.31;" xml:space="preserve">
<style type="text/css">
	.st0{fill:#FFFFFF;}
	.st1{fill:#F5DA89;}
	.st2{fill:#E0C77D;}
	.st3{fill:#EBD183;}
	.st4{fill:#FFE48F;}
	.st5{fill:#DF7A68;}
	.st6{fill:#C96E5D;}
	.st7{fill:#6E4E48;}
	.st8{fill:#7D5952;}
	.st9{fill:#58595B;}
</style>
<g>
	<g>
		
			<rect x="167.35" y="554.11" transform="matrix(0.593 -0.8052 0.8052 0.593 -359.6492 400.7013)" class="st0" width="98.4" height="4"/>
	</g>
	<g>
		
			<rect x="-12.63" y="586" transform="matrix(0.7442 -0.6679 0.6679 0.7442 -376.9781 191.5497)" class="st0" width="148.49" height="4"/>
	</g>
	<g>
		
			<rect x="959.67" y="506.86" transform="matrix(0.8053 -0.5929 0.5929 0.8053 -142.4285 678.4391)" class="st0" width="4" height="98.4"/>
	</g>
	<g>
		
			<rect x="1114.67" y="513.99" transform="matrix(0.6678 -0.7443 0.7443 0.6678 -66.9016 1026.5619)" class="st0" width="4" height="148.5"/>
	</g>
	<g>
		<path class="st1" d="M275.4,598.2h313.8V163.7L284,533.9C280.3,554.5,277.3,576,275.4,598.2z"/>
		<path class="st2" d="M284,533.9l305.2-370.2V88.1C589.1,88.1,341.1,216.6,284,533.9z"/>
	</g>
	<g>
		<path class="st3" d="M589.1,88.1v75.6L892.8,526C833.1,214.5,589.1,88.1,589.1,88.1z"/>
		<path class="st4" d="M589.1,163.7v434.5h313.8c-2.2-25.1-5.7-49.1-10.1-72.2L589.1,163.7z"/>
	</g>
	<polygon class="st5" points="589.1,0 1069.2,542.6 931.8,518.9 589.1,126.2 	"/>
	<polygon class="st6" points="589.1,0 109.1,542.6 246.5,518.9 589.1,126.2 	"/>
	<g>
		<path class="st7" d="M588.1,258c-7.4,32.5-54.3,221.3-168.7,340.3h169.8h100.1l-140.8-67.2C548.5,531.1,579.4,457.7,588.1,258z"/>
		<path class="st8" d="M589.1,253.1L589.1,253.1c0,0.1-0.4,1.8-1.1,4.9c-8.6,199.7-39.6,273.1-39.6,273.1l140.8,67.1h69.7
			C633.4,467.7,589.1,253.1,589.1,253.1z"/>
	</g>
	<path class="st9" d="M0.1,623.9c0-2.1,1.7-3.8,3.8-3.8s3.8,1.7,3.8,3.8v1.7c0,1.2-0.6,2.3-1.4,3l2.4,10.7H6l-5.6-12.1l0,0
		c-0.2-0.5-0.4-1-0.4-1.6v-1.7H0.1z"/>
	<path class="st9" d="M180.8,581.6c0-2.1,1.7-3.8,3.8-3.8c2.1,0,3.8,1.7,3.8,3.8v1.7c0,1.2-0.6,2.3-1.4,2.9l2.4,10.7h-2.6l-5.6-12.1
		l0,0c-0.2-0.5-0.4-1-0.4-1.6L180.8,581.6L180.8,581.6z"/>
	<path class="st9" d="M1177.9,623.9c0-2.1-1.7-3.8-3.8-3.8c-2.1,0-3.8,1.7-3.8,3.8v1.7c0,1.2,0.6,2.3,1.4,3l-2.4,10.7h2.6l5.6-12.1
		l0,0c0.2-0.5,0.4-1,0.4-1.6L1177.9,623.9L1177.9,623.9z"/>
	<path class="st9" d="M997.3,581.6c0-2.1-1.7-3.8-3.8-3.8c-2.1,0-3.8,1.7-3.8,3.8v1.7c0,1.2,0.6,2.3,1.4,2.9l-2.4,10.7h2.6l5.6-12.1
		l0,0c0.2-0.5,0.4-1,0.4-1.6L997.3,581.6L997.3,581.6z"/>
</g>
</svg>
